HIERARCHY
ROOT Hips
{
  OFFSET 36.1962 39.0038 72.7268
  CHANNELS 6 Xposition Yposition Zposition Zrotation Xrotation Yrotation
  JOINT LeftHip
  {
    OFFSET 3.43 -1.42109e-014 -1.42109e-014
    CHANNELS 3 Zrotation Xrotation Yrotation
    JOINT LeftKnee
    {
      OFFSET -2.84217e-014 -18.47 2.84217e-014
      CHANNELS 3 Zrotation Xrotation Yrotation
      JOINT LeftAnkle
      {
        OFFSET -1.67688e-012 -17.95 -4.68958e-013
        CHANNELS 3 Zrotation Xrotation Yrotation
        End Site
        {
          OFFSET 0 -3.12 0
        }
      }
    }
  }
  JOINT RightHip
  {
    OFFSET -3.43 -7.10543e-015 0
    CHANNELS 3 Zrotation Xrotation Yrotation
    JOINT RightKnee
    {
      OFFSET 2.20268e-013 -18.47 1.42109e-013
      CHANNELS 3 Zrotation Xrotation Yrotation
      JOINT RightAnkle
      {
        OFFSET -3.30758e-012 -17.95 -1.49214e-012
        CHANNELS 3 Zrotation Xrotation Yrotation
        End Site
        {
          OFFSET 0 -3.12 0
        }
      }
    }
  }
  JOINT Chest
  {
    OFFSET -8.88178e-014 4.57 -2.13163e-013
    CHANNELS 3 Zrotation Xrotation Yrotation
    JOINT Chest2
    {
      OFFSET 1.06581e-014 6.57 1.42109e-014
      CHANNELS 3 Zrotation Xrotation Yrotation
      JOINT LeftCollar
      {
        OFFSET 1.06 4.19 1.76
        CHANNELS 3 Zrotation Xrotation Yrotation
        JOINT LeftShoulder
        {
          OFFSET 5.81 2.13163e-014 1.42109e-014
          CHANNELS 3 Zrotation Xrotation Yrotation
          JOINT LeftElbow
          {
            OFFSET 4.9738e-014 -12.08 2.13163e-013
            CHANNELS 3 Zrotation Xrotation Yrotation
            JOINT LeftWrist
            {
              OFFSET 5.79803e-012 -9.82 -4.26326e-014
              CHANNELS 3 Zrotation Xrotation Yrotation
              End Site
              {
                OFFSET 0 -7.37 0
              }
            }
          }
        }
      }
      JOINT RightCollar
      {
        OFFSET -1.06 4.19 1.76
        CHANNELS 3 Zrotation Xrotation Yrotation
        JOINT RightShoulder
        {
          OFFSET -6.06 -7.10543e-015 -2.84217e-014
          CHANNELS 3 Zrotation Xrotation Yrotation
          JOINT RightElbow
          {
            OFFSET -4.01457e-013 -11.08 -6.96332e-013
            CHANNELS 3 Zrotation Xrotation Yrotation
            JOINT RightWrist
            {
              OFFSET 5.17986e-012 -9.82 -1.15392e-011
              CHANNELS 3 Zrotation Xrotation Yrotation
              End Site
              {
                OFFSET 0 -7.14001 0
              }
            }
          }
        }
      }
      JOINT Neck
      {
        OFFSET 1.42109e-014 4.05 1.42109e-014
        CHANNELS 3 Zrotation Xrotation Yrotation
        JOINT Head
        {
          OFFSET 5.68434e-014 5.19 7.10543e-014
          CHANNELS 3 Zrotation Xrotation Yrotation
          End Site
          {
            OFFSET 0 4.14001 0
          }
        }
      }
    }
  }
}
MOTION
Frames:	19
Frame Time:	0.0333333
36.1962 39.0038 72.7268 -7.26428 1.83116 -133.276 -9.3601 -2.86671 -8.77241 -0.933496 22.193 8.53185 3.33848 -13.4438 0.393585 -2.31761 -20.5796 -0.922585 -9.2666 64.5491 -1.35869 -4.86676 -5.29143 -0.225024 -2.40827 2.83035 -2.5621 -2.93157 4.30622 -3.44445 4.90021 -0.00169695 1.9485 16.8538 -11.6214 6.21232 -6.81137 -10.8546 -35.6206 6.75416 3.1392 -0.185289 -2.49273 0.190522 -4.34239 -18.7147 3.03832 -1.53473 9.98136 -14.8082 37.5846 -2.86611 -0.0330781 -0.000827507 1.89819 -5.69981 -1.1705 1.76508 -5.8789 -0.365023 
35.4563 38.9846 71.857 -6.69068 2.31959 -132.005 -8.37209 -1.2152 -8.40246 -0.531991 22.5298 7.1232 3.24466 -14.8724 0.423604 -1.79961 -23.5507 -0.517162 -6.24105 57.2269 -6.26028 -5.51586 -8.53134 -0.411732 -1.85572 3.1648 -3.07407 -2.64485 4.68679 -4.00323 4.99861 -2.19626e-005 1.80911 16.6698 -15.068 5.31046 -7.02901 -12.9385 -35.0852 6.96093 2.67275 -0.162587 -2.46355 0.189618 -4.33322 -18.5586 3.2528 -1.60439 10.0067 -15.3955 37.2192 -2.43688 0.118515 0.0025207 2.00841 -5.55984 -1.32735 1.90656 -6.11619 -0.449084 
34.7162 38.913 70.9832 -6.36781 2.53154 -130.759 -7.67499 0.37852 -8.14557 -0.197532 22.8822 5.81734 3.15827 -16.4146 0.455635 -1.99717 -24.9703 -0.27357 -4.32812 46.9473 -9.48351 -4.4246 -10.4523 -0.404908 -1.54222 3.46726 -3.5282 -2.53128 5.01318 -4.48673 5.12763 0.00188902 1.69586 16.4063 -18.1104 4.41649 -7.2507 -15.3361 -34.75 7.16931 2.14183 -0.134192 -2.42555 0.188064 -4.33836 -18.3202 3.4034 -1.69251 9.98694 -15.9499 36.939 -2.0806 0.0927881 0.00168491 2.15859 -5.46711 -1.50815 2.02936 -6.34825 -0.570405 
33.9447 38.7793 70.0631 -6.29464 2.46731 -129.599 -7.23813 1.94594 -7.92839 -0.0143266 23.4293 4.55312 3.14779 -18.5304 0.513632 -2.74409 -24.6617 -0.153222 -3.32465 34.7456 -11.2388 -2.0812 -10.3682 -0.188843 -1.48345 3.69218 -3.9347 -2.58824 5.24136 -4.88136 5.27456 0.00385824 1.61387 16.0699 -20.5555 3.57638 -7.46509 -17.8655 -34.6884 7.40363 1.57856 -0.102138 -2.38456 0.185891 -4.36546 -18.0069 3.52128 -1.80266 9.89084 -16.3243 36.7784 -1.87311 -0.113614 -0.0018573 2.32381 -5.41162 -1.6881 2.12825 -6.55461 -0.705692 
33.0668 38.5436 69.0066 -6.66854 1.9954 -128.626 -7.18094 3.75149 -7.62501 -0.142667 24.0667 3.29776 3.3152 -20.938 0.612745 -3.94308 -23.3513 0.00438075 -3.05936 23.4669 -12.089 0.636021 -9.06911 0.0504425 -1.97573 3.74808 -4.23359 -2.73995 5.28507 -5.17871 5.42224 0.00578328 1.5694 15.6498 -22.1308 2.855 -7.66419 -20.2676 -34.9466 7.6472 1.02631 -0.0685937 -2.3513 0.183492 -4.41429 -17.7139 3.78265 -1.9443 9.72487 -16.4203 36.7856 -1.83926 -0.442185 -0.00709797 2.46526 -5.36587 -1.84182 2.20258 -6.69052 -0.833115 
32.0472 38.2217 67.7569 -7.40873 1.26206 -127.948 -7.23238 6.31766 -7.07213 -0.611931 24.1468 1.90121 3.72375 -23.4671 0.773687 -5.10444 -22.5739 0.227896 -3.31014 16.9729 -12.4177 2.88618 -8.28427 0.209061 -2.94672 3.56325 -4.37942 -2.86231 5.10368 -5.37798 5.54929 0.00751749 1.56817 15.1383 -22.6705 2.31435 -7.83339 -22.2426 -35.4773 7.88231 0.540371 -0.0372291 -2.33742 0.181567 -4.474 -17.5105 4.29595 -2.12295 9.50622 -16.2154 36.9507 -1.95035 -0.803085 -0.0136701 2.54011 -5.29396 -1.9478 2.25148 -6.69626 -0.933552 
31.002 37.9645 66.4098 -7.65011 1.14115 -127.528 -6.19895 10.2612 -6.18052 -1.12742 22.0168 0.0648362 4.27141 -25.1859 0.954643 -4.95468 -22.5833 0.743123 -3.86444 15.869 -12.6564 4.25225 -8.37789 0.311583 -3.26782 3.35406 -4.50489 -2.82872 4.84186 -5.48389 5.63492 0.00891974 1.60974 14.4791 -22.4332 1.9637 -7.91516 -23.5079 -36.0748 8.13883 0.182631 -0.0129932 -2.34934 0.180821 -4.52633 -17.3036 4.72748 -2.32141 9.21515 -15.7761 37.0918 -2.14912 -1.11855 -0.0209811 2.51774 -5.16698 -1.9937 2.26961 -6.51699 -0.993048 
29.9594 37.8416 64.9978 -7.37622 1.6148 -127.365 -4.20989 15.6669 -5.11415 -1.58079 17.0875 -1.75592 4.52701 -24.9783 1.00321 -3.41354 -23.3271 1.89035 -4.61318 19.4897 -12.9564 3.61342 -9.11972 0.288276 -2.97986 3.13633 -4.58111 -2.53719 4.51488 -5.51329 5.66959 0.00984265 1.6843 13.6557 -21.488 1.82516 -7.8825 -23.8394 -36.5825 8.40445 0.0111789 -0.000821363 -2.38554 0.181573 -4.55605 -17.1251 5.00726 -2.53046 8.88212 -15.2089 37.1592 -2.34596 -1.33308 -0.0272964 2.39737 -4.98304 -1.98209 2.24708 -6.1313 -1.00695 
28.922 37.9249 63.5291 -6.70962 2.50528 -127.463 -2.01724 17.825 -3.95455 -1.87644 18.4242 -2.94248 4.36773 -23.1572 0.895281 -1.30949 -22.4635 3.21419 -4.65832 20.8657 -13.6551 2.78313 -6.04846 0.147067 -2.30247 2.85526 -4.53577 -1.97732 4.09996 -5.48453 5.66477 0.0102971 1.77483 12.6818 -19.851 1.91782 -7.73867 -23.123 -36.9178 8.63043 0.0647485 -0.00488576 -2.4378 0.183514 -4.56227 -16.9925 5.15712 -2.7306 8.55802 -14.6408 37.1735 -2.46516 -1.43099 -0.0307906 2.21609 -4.78323 -1.93271 2.17638 -5.57166 -0.984144 
27.838 38.1814 61.9735 -6.10981 3.32824 -127.783 -0.158092 18.0966 -2.76428 -1.7908 23.0099 -3.3715 3.44638 -19.0049 0.577045 0.449571 -20.0042 4.25995 -3.98938 20.3847 -14.0323 2.22826 -1.65655 0.0322183 -1.86355 2.41167 -4.27676 -1.2369 3.54804 -5.40728 5.65197 0.0106084 1.86436 11.6918 -17.5572 2.27655 -7.51161 -21.3944 -37.0936 8.70188 0.352824 -0.0268445 -2.49588 0.185854 -4.56111 -16.9642 5.31485 -2.89747 8.31274 -14.1882 37.2382 -2.46399 -1.43533 -0.0308694 2.03862 -4.6422 -1.87716 2.06278 -4.92916 -0.946613 
26.7568 38.429 60.411 -5.53037 4.11375 -128.117 1.35761 15.2779 -1.54267 -1.32762 32.2938 -3.1809 0.297322 -12.5407 0.0326689 2.0109 -17.1901 5.08964 -3.19675 20.4851 -14.0637 1.82847 1.2283 -0.0196017 -1.50829 1.96505 -3.95555 -0.46802 3.02443 -5.27395 5.66771 0.011323 1.94304 10.954 -15.1009 2.9032 -7.19933 -18.871 -37.1036 8.51126 0.818784 -0.0609281 -2.55247 0.187812 -4.57498 -17.0603 5.3334 -2.99302 8.18688 -13.9491 37.3687 -2.36263 -1.43779 -0.02965 1.92869 -4.63 -1.84579 1.92953 -4.33183 -0.922514 
25.7707 38.5454 58.9577 -4.781 5.05482 -128.292 2.79189 10.4165 -0.934512 0.0535755 43.1593 -1.87787 -4.5337 -3.79118 -0.150127 3.75504 -15.2279 5.85246 -2.38796 22.0929 -14.319 1.58463 0.598949 -0.00828318 -0.85515 1.75334 -3.76019 0.171913 2.76346 -5.06447 5.73181 0.0128427 2.01077 10.6833 -12.943 3.72263 -6.81505 -15.9308 -37.0018 8.04564 1.34917 -0.0948873 -2.60758 0.189168 -4.61543 -17.2273 4.9302 -2.97386 8.19545 -13.9912 37.5208 -2.22941 -1.52762 -0.0297258 1.91556 -4.76685 -1.85231 1.81066 -3.90047 -0.93453 
24.8201 38.6385 57.5873 -4.41546 5.72375 -128.474 3.31534 5.59929 -0.342656 1.80214 52.8228 -0.53071 -4.43889 0.976269 0.0378372 5.08866 -13.5836 6.33025 -1.74787 24.5515 -14.6517 1.46545 -3.4561 0.044214 -0.49323 1.71019 -3.50163 0.572353 2.73586 -4.75039 5.83499 0.0151189 2.07461 10.7781 -10.8674 4.64123 -6.43326 -13.0315 -37.0004 7.40698 1.83756 -0.118952 -2.66969 0.190517 -4.67214 -17.4218 4.18036 -2.81561 8.36431 -14.3443 37.7496 -2.13315 -1.70095 -0.0316695 1.97895 -5.005 -1.88574 1.73173 -3.69916 -0.988521 
23.917 38.7198 56.3277 -4.4321 6.14528 -128.8 2.99606 0.658365 -0.208659 3.86721 60.7907 0.660717 -3.88628 3.49432 0.118589 5.89529 -11.5144 6.57116 -1.36428 25.8484 -14.8172 1.3109 -6.60608 0.075659 -0.354646 1.8545 -3.14553 0.694104 2.95456 -4.30045 5.94463 0.0176707 2.14331 11.226 -8.85137 5.5865 -6.10362 -10.607 -37.1406 6.77542 2.20292 -0.130419 -2.75413 0.193109 -4.71566 -17.627 3.05635 -2.51919 8.68497 -15.0152 38.0382 -2.13569 -1.9595 -0.0365278 2.06177 -5.25241 -1.91488 1.69104 -3.70779 -1.06837 
23.0436 38.8031 55.1677 -4.85252 6.26156 -129.433 1.78861 -4.29291 -0.514211 5.48749 66.7988 1.96444 -2.50463 3.49221 0.0763651 6.10957 -9.20091 6.59772 -1.18971 26.4489 -14.5646 1.10175 -9.16344 0.0882933 -0.49789 2.1104 -2.64274 0.575116 3.32879 -3.69419 6.02382 0.0198646 2.22303 11.9308 -6.7148 6.50551 -5.87673 -8.94519 -37.3813 6.32323 2.4224 -0.133825 -2.87845 0.198298 -4.71194 -17.8586 1.6811 -2.11683 9.1356 -15.9774 38.3886 -2.27463 -2.28571 -0.045383 2.09806 -5.42218 -1.90154 1.65664 -3.83611 -1.14091 
22.1703 38.9016 54.08 -5.6595 6.00393 -130.482 -0.111395 -9.07146 -1.13462 5.25413 70.2855 4.40029 -0.215044 1.60064 0.00300398 5.69706 -6.72009 6.45991 -1.3073 26.5641 -13.6704 0.879635 -11.3157 0.0871472 -0.999802 2.39583 -1.97327 0.311973 3.74801 -2.93596 6.04935 0.0212079 2.31556 12.7384 -4.32533 7.35788 -5.77967 -8.12098 -37.614 6.13386 2.51852 -0.134962 -3.05545 0.206807 -4.63989 -18.1541 0.19971 -1.66461 9.67392 -17.1636 38.788 -2.56092 -2.6673 -0.05963 2.03821 -5.47713 -1.81527 1.58108 -3.97193 -1.16905 
21.3162 38.9712 53.0763 -6.67497 5.45822 -131.965 -2.2524 -13.6406 -1.9381 2.67731 70.9118 8.40802 2.355 -1.45516 0.0299112 4.8264 -4.53411 6.24028 -1.71727 26.8249 -12.1592 0.737414 -13.3366 0.0862138 -1.74801 2.68434 -1.16334 0.0221295 4.15811 -2.0624 6.01851 0.0214952 2.41798 13.5231 -1.80675 8.11264 -5.79584 -7.99868 -37.7049 6.17299 2.54114 -0.137045 -3.28644 0.21825 -4.50089 -18.543 -1.38385 -1.2272 10.2293 -18.4666 39.1704 -2.9716 -3.0978 -0.08037 1.86109 -5.44024 -1.64271 1.42509 -4.0361 -1.12507 
20.5053 38.9994 52.1622 -7.55567 4.92213 -133.765 -3.97 -17.7914 -2.75584 -0.382761 68.3492 12.3062 4.21583 -4.83998 0.178249 3.8504 -2.6388 6.02594 -2.24635 27.1818 -10.318 0.674773 -15.2991 0.0906289 -2.39004 2.97617 -0.32122 -0.195071 4.53719 -1.13831 5.9437 0.0207827 2.52313 14.1775 0.624443 8.76497 -5.86923 -8.29578 -37.5932 6.33498 2.54548 -0.140889 -3.55788 0.231257 -4.31538 -19.0033 -3.08882 -0.856991 10.7218 -19.7492 39.462 -3.45479 -3.56057 -0.107414 1.57438 -5.36913 -1.38921 1.17638 -4.00996 -0.997481 
19.727 38.9964 51.3119 -8.16298 4.5279 -135.696 -4.94324 -21.0384 -3.43576 -2.2643 62.4608 14.6959 4.72475 -7.7599 0.320621 2.90542 -0.789929 5.8323 -2.70897 27.3397 -8.41656 0.628285 -17.1923 0.094977 -2.8112 3.25462 0.475025 -0.26793 4.86993 -0.24525 5.84397 0.0193176 2.62239 14.6063 2.83092 9.33892 -5.9219 -8.6872 -37.3167 6.4922 2.57034 -0.145803 -3.84465 0.244137 -4.10995 -19.5033 -4.84744 -0.586911 11.0898 -20.8662 39.6356 -3.94205 -4.02035 -0.138415 1.20999 -5.31656 -1.07433 0.853745 -3.92312 -0.789274 
